<svg width="28" height="22" viewBox="0 0 28 22" fill="none" xmlns="http://www.w3.org/2000/svg">
<path d="M0.9375 7.8835C0.9375 10.3986 2.2119 12.6225 4.16357 13.9713L12.4871 21.2357C13.4759 22.0988 14.9532 22.0872 15.9285 21.209L24.2994 13.6703C26.0199 12.3046 27.1194 10.2196 27.1194 7.8835C27.1194 3.76956 23.7098 0.43457 19.5037 0.43457C17.3545 0.43457 15.4131 1.30538 14.0284 2.70595C12.6438 1.30538 10.7024 0.43457 8.55321 0.43457C4.34717 0.43457 0.9375 3.76956 0.9375 7.8835Z" fill="#FF4B4B"/>
<path opacity="0.3" fill-rule="evenodd" clip-rule="evenodd" d="M8.24753 11.0937C9.92888 11.0937 11.2919 9.69003 11.2919 7.95849C11.2919 6.22694 9.92888 4.82324 8.24753 4.82324C6.56615 4.82324 5.20312 6.22694 5.20312 7.95849C5.20312 9.69003 6.56615 11.0937 8.24753 11.0937Z" fill="white"/>
</svg>
